<?xml version="1.0" standalone="no"?>
<!DOCTYPE svg PUBLIC "-//W3C//DTD SVG 20010904//EN"
 "http://www.w3.org/TR/2001/REC-SVG-20010904/DTD/svg10.dtd">
<svg version="1.0" xmlns="http://www.w3.org/2000/svg"
 width="256.000000pt" height="256.000000pt" viewBox="0 0 256.000000 256.000000"
 preserveAspectRatio="xMidYMid meet">
<metadata>
Created by potrace 1.11, written by Peter Selinger 2001-2013
</metadata>
<g transform="translate(0.000000,256.000000) scale(0.100000,-0.100000)"
fill="#000000" stroke="none">
<path d="M1540 2243 c0 -7 -12 -13 -26 -13 -14 0 -23 -4 -19 -10 3 -5 1 -10
-6 -10 -8 0 -8 -4 1 -15 9 -11 9 -15 1 -15 -7 0 -10 -4 -7 -8 3 -5 -13 -8 -35
-7 -22 1 -42 -2 -45 -7 -3 -4 -11 -5 -17 -1 -15 9 -47 11 -47 3 0 -4 -7 -7
-15 -7 -8 0 -15 5 -15 11 0 7 -3 7 -8 1 -10 -14 -45 -16 -54 -2 -4 7 -8 8 -8
2 0 -6 -11 -12 -26 -13 -17 -1 -23 2 -19 11 4 6 0 4 -8 -6 -11 -14 -16 -15
-20 -5 -4 10 -6 10 -6 -1 -1 -10 -4 -11 -15 -2 -9 8 -16 8 -20 2 -4 -6 -13 -8
-22 -4 -18 7 -44 -25 -36 -46 4 -11 -1 -13 -26 -8 -17 4 -34 2 -37 -3 -3 -5
-11 -7 -19 -4 -7 3 -13 -2 -13 -10 0 -8 4 -13 8 -11 12 8 -3 -39 -15 -47 -7
-5 -4 -8 7 -8 17 0 22 -11 10 -23 -11 -12 -12 -57 0 -57 8 0 8 -3 -1 -12 -9
-9 -8 -16 6 -32 9 -11 12 -17 6 -13 -8 4 -10 -13 -9 -58 2 -41 -1 -63 -7 -59
-6 4 -2 -6 8 -22 11 -15 14 -25 7 -21 -13 8 -13 -29 0 -50 4 -6 3 -14 -3 -18
-6 -4 -8 -10 -5 -15 7 -11 -5 -60 -14 -58 -20 2 -31 -3 -25 -14 4 -7 3 -8 -5
-4 -6 4 -18 0 -27 -8 -9 -9 -19 -14 -24 -11 -5 3 -11 1 -15 -5 -4 -6 -11 -8
-16 -5 -5 4 -9 1 -9 -4 0 -6 -7 -11 -15 -11 -7 0 -18 -7 -23 -16 -5 -9 -12
-16 -15 -16 -19 0 -47 -12 -47 -20 0 -5 -5 -6 -10 -3 -6 3 -10 1 -10 -5 0 -7
-7 -9 -16 -6 -8 3 -12 2 -9 -3 3 -5 0 -13 -6 -17 -7 -4 -9 -3 -5 4 3 6 -2 15
-11 21 -10 6 -13 11 -8 11 6 0 11 9 12 20 1 13 -2 18 -10 14 -8 -5 -8 -3 0 7
16 16 17 33 1 23 -7 -5 -8 -3 -2 7 12 19 13 59 2 59 -5 0 -6 6 -1 13 9 15 12
57 4 57 -4 0 -7 9 -7 19 0 11 4 17 9 14 5 -3 7 3 3 13 -3 11 -7 32 -10 47 -4
23 -2 28 11 23 13 -5 14 -4 4 8 -7 8 -9 21 -5 27 5 8 3 9 -6 4 -10 -6 -12 -4
-7 9 5 12 3 15 -5 10 -17 -11 -118 -10 -118 0 0 6 -4 6 -10 0 -5 -5 -40 -7
-80 -4 -38 3 -70 3 -70 0 0 -3 -9 -6 -19 -6 -11 0 -18 3 -15 7 2 4 -11 5 -29
3 -17 -1 -36 -3 -40 -3 -5 -1 -6 -5 -3 -10 4 -5 0 -11 -6 -14 -10 -3 -10 -7
-1 -17 9 -10 9 -19 2 -33 -8 -14 -8 -17 0 -13 10 7 7 -77 -4 -95 -3 -4 -1 -10
5 -14 13 -8 13 -52 0 -60 -5 -3 -10 -12 -10 -18 0 -8 3 -8 9 1 4 8 8 -11 9
-46 1 -54 -1 -59 -19 -55 -10 3 -19 9 -19 14 0 5 -5 9 -11 9 -5 0 -8 -4 -5 -8
3 -5 -7 -7 -22 -4 -22 3 -31 -2 -41 -22 -8 -14 -17 -25 -20 -24 -20 2 -31 -3
-26 -12 3 -6 -1 -13 -9 -16 -9 -3 -16 -13 -16 -21 0 -8 -4 -11 -10 -8 -5 3
-10 1 -10 -4 0 -6 -8 -11 -17 -11 -9 0 -14 -3 -11 -6 8 -8 -34 -50 -46 -46 -5
2 -3 -5 5 -14 8 -10 9 -15 3 -11 -8 4 -12 -15 -13 -62 -1 -40 3 -72 9 -76 6
-3 8 -11 5 -16 -4 -5 2 -9 11 -9 10 0 15 -3 11 -6 -3 -4 12 -24 34 -45 22 -22
37 -39 33 -39 -4 0 9 -13 29 -29 20 -15 34 -31 30 -35 -7 -6 12 -10 37 -6 17
2 51 35 44 42 -2 3 3 5 11 5 18 0 17 4 19 -79 1 -36 -2 -64 -7 -61 -4 2 -5 -8
-1 -23 6 -21 4 -25 -7 -19 -12 8 -12 6 0 -8 8 -10 9 -17 3 -17 -6 0 -9 -9 -7
-20 2 -11 -1 -22 -7 -26 -6 -4 -5 -10 3 -15 11 -7 11 -9 1 -9 -7 0 -10 -5 -7
-10 3 -6 0 -10 -7 -10 -10 0 -10 -2 1 -9 9 -6 10 -11 3 -15 -6 -4 -8 -14 -5
-23 4 -9 2 -14 -3 -10 -6 4 -9 -11 -8 -39 2 -32 -1 -42 -9 -37 -8 5 -8 2 0 -8
10 -12 10 -18 1 -27 -9 -9 -9 -12 2 -12 11 0 11 -3 2 -12 -10 -10 -8 -19 10
-49 1 -3 -4 -14 -12 -24 -9 -11 -10 -16 -2 -11 15 9 15 1 1 -26 -8 -15 -8 -19
1 -13 8 5 10 -2 7 -23 -6 -39 3 -52 41 -55 18 -1 32 -5 32 -9 0 -5 5 -8 11 -8
5 0 7 5 3 12 -4 7 -3 8 4 4 7 -4 12 -15 12 -24 0 -15 2 -15 10 -2 8 12 13 13
30 2 13 -8 20 -8 20 -1 0 5 4 7 10 4 5 -3 10 -1 10 5 0 7 15 29 33 51 29 33
38 62 27 89 -1 3 -1 10 0 15 7 32 5 65 -4 69 -6 2 -5 5 2 5 7 1 10 6 6 12 -14
24 -11 68 6 84 16 15 17 14 16 -7 0 -13 -8 -26 -16 -30 -10 -4 -7 -7 10 -7 20
-1 22 -3 10 -11 -10 -6 -11 -10 -2 -10 6 0 12 -5 12 -11 0 -5 -4 -8 -8 -5 -4
2 -8 -4 -8 -14 0 -10 5 -16 10 -13 5 4 7 -3 4 -15 -4 -13 -1 -22 5 -22 7 0 5
-5 -3 -10 -11 -7 -11 -10 -2 -10 9 0 10 -5 2 -19 -7 -14 -7 -22 2 -27 7 -5 8
-3 3 6 -5 9 -4 11 4 6 9 -6 9 -11 0 -22 -9 -11 -9 -14 1 -14 9 0 10 -3 1 -13
-8 -10 -7 -17 1 -25 9 -9 9 -12 -2 -12 -9 0 -8 -5 6 -16 10 -8 13 -13 7 -9 -7
3 -13 1 -13 -4 0 -6 5 -11 11 -11 5 0 8 -4 5 -8 -2 -4 6 -8 19 -8 13 0 22 3
20 7 -3 3 6 7 20 7 15 0 22 -5 19 -12 -3 -6 1 -3 9 7 15 18 32 24 22 7 -4 -7
2 -7 18 -1 14 6 28 7 33 3 4 -4 3 -1 -1 7 -6 11 -4 13 8 8 11 -4 17 -1 17 8 0
8 4 15 10 15 20 0 29 36 15 63 -12 23 -11 25 3 19 15 -5 15 -4 3 11 -7 9 -11
24 -7 32 3 8 1 15 -4 15 -6 0 -10 5 -10 11 0 5 5 7 12 3 7 -5 8 -3 2 7 -5 8
-9 25 -10 39 -6 77 -9 96 -18 102 -6 4 -5 12 3 21 9 11 9 17 1 22 -6 4 -9 13
-6 20 2 7 -1 18 -7 24 -8 8 -7 11 4 11 12 0 12 2 -1 10 -13 8 -13 10 -1 10 11
0 12 3 4 11 -6 6 -9 18 -6 27 5 11 2 13 -6 7 -10 -6 -11 -3 -2 12 6 11 8 23 5
26 -10 10 -11 42 -2 54 6 7 5 14 -3 19 -8 5 -9 3 -4 -6 5 -9 4 -11 -4 -6 -8 5
-9 12 -2 19 5 7 8 36 6 64 -1 29 0 51 4 48 4 -2 8 2 8 10 0 8 -4 12 -7 10 -10
-6 -6 67 4 84 6 10 5 12 -2 7 -8 -5 -11 3 -8 26 2 18 4 38 5 45 0 7 8 10 16 7
8 -4 21 -1 29 5 7 6 16 8 19 4 4 -3 7 -1 7 5 0 7 9 12 21 12 13 0 18 4 13 12
-5 7 -2 9 9 5 9 -3 18 1 21 10 4 9 9 13 12 10 4 -3 13 1 21 9 9 8 22 13 29 10
8 -3 14 1 14 11 0 9 3 13 6 10 4 -4 19 2 34 13 16 11 32 20 37 20 4 0 1 -5 -7
-10 -13 -9 -13 -10 0 -10 9 0 16 -9 16 -20 0 -11 -3 -20 -6 -20 -3 0 -5 -23
-5 -50 0 -28 4 -50 8 -50 5 0 5 -5 1 -11 -10 -16 -11 -89 -1 -89 5 0 5 -5 2
-11 -11 -17 -11 -109 0 -114 6 -3 5 -7 -2 -11 -9 -4 -10 -11 -3 -25 8 -14 7
-19 -2 -19 -9 0 -9 -3 2 -10 13 -9 13 -10 0 -10 -13 0 -13 -1 0 -10 11 -7 11
-10 2 -10 -10 0 -10 -5 -2 -20 8 -15 8 -20 -2 -20 -9 0 -9 -3 2 -10 13 -9 13
-10 0 -10 -13 0 -13 -1 0 -10 10 -6 11 -10 3 -10 -7 0 -13 -5 -13 -11 0 -5 5
-7 11 -3 7 4 7 -1 -1 -16 -8 -15 -8 -20 -1 -16 6 4 11 2 11 -3 0 -6 -4 -11 -8
-11 -5 0 -9 -7 -9 -15 0 -8 4 -12 9 -9 4 3 8 0 8 -5 0 -6 -4 -11 -8 -11 -5 0
-9 -7 -9 -15 0 -8 4 -12 9 -9 4 3 8 0 8 -5 0 -6 -3 -11 -7 -11 -10 0 -8 -83 1
-99 4 -6 1 -11 -6 -11 -10 0 -10 -2 1 -9 11 -7 11 -9 0 -14 -12 -4 -12 -6 0
-6 9 -1 5 -9 -12 -25 -37 -34 -41 -76 -6 -76 13 0 18 -4 13 -13 -6 -9 -4 -9 8
1 12 9 18 10 23 2 5 -8 11 -8 21 1 11 9 14 9 14 -1 0 -9 3 -10 13 -1 8 6 17 8
21 4 3 -4 16 -8 27 -10 14 -2 18 1 13 9 -5 9 -3 9 9 -1 9 -7 26 -11 37 -8 11
3 20 0 20 -6 0 -7 5 -5 10 3 6 10 10 11 10 3 0 -7 5 -13 11 -13 5 0 7 5 3 11
-4 8 -1 8 12 1 11 -5 27 -8 36 -7 10 2 20 -1 24 -6 3 -5 11 -6 17 -2 16 10 37
13 37 5 0 -4 21 -8 48 -9 26 0 66 -3 90 -5 23 -2 42 0 42 5 0 4 6 5 13 0 6 -4
20 -6 30 -5 9 2 17 -2 17 -9 0 -10 3 -10 12 -1 15 15 32 16 22 1 -5 -8 -1 -8
14 0 12 6 23 7 26 3 7 -11 46 -9 65 2 10 7 12 5 6 -4 -6 -9 2 -11 33 -8 22 2
38 0 36 -4 -3 -5 -1 -8 5 -8 5 0 12 6 14 13 4 9 6 9 6 -1 1 -7 6 -10 11 -7 6
3 10 1 10 -6 0 -7 6 -5 13 6 11 14 16 15 22 5 6 -9 4 -11 -5 -5 -9 5 -11 4 -6
-3 5 -9 13 -9 28 -1 12 6 23 7 27 2 3 -5 12 -9 18 -8 16 0 46 42 38 54 -3 5 1
16 9 24 8 8 12 17 9 21 -4 3 -1 6 5 6 7 0 12 5 12 11 0 5 -6 7 -12 3 -7 -4 -5
2 5 13 10 12 20 30 22 40 2 10 4 20 6 23 1 3 3 12 3 20 1 8 8 14 16 12 11 -2
11 0 1 11 -6 8 -10 21 -9 28 2 8 -3 13 -9 11 -7 -1 -13 3 -13 9 0 5 -4 8 -8 5
-11 -6 -9 25 3 43 5 10 4 12 -3 7 -7 -4 -12 -3 -12 3 0 5 5 13 10 16 6 4 7 12
3 18 -12 18 -10 76 2 81 6 2 12 -4 13 -13 1 -9 4 -29 6 -46 2 -16 4 -30 6 -30
1 0 2 -16 3 -35 2 -42 26 -53 73 -34 22 8 35 9 42 2 8 -8 15 -6 24 3 15 15 19
59 5 59 -4 0 -6 4 -2 9 3 5 2 12 -2 14 -5 3 -8 28 -7 56 0 27 -3 48 -7 45 -4
-2 -7 13 -6 35 2 23 -2 37 -7 34 -5 -4 -7 1 -3 10 4 10 1 17 -6 17 -8 0 -6 4
3 10 8 5 10 10 4 10 -11 0 -11 2 -15 58 -1 17 -6 32 -11 32 -5 0 -4 10 3 21 7
13 7 19 1 15 -7 -4 -9 4 -8 21 2 16 -1 33 -6 40 -6 7 -5 14 3 19 8 5 9 3 4 -6
-6 -9 -4 -11 4 -6 9 6 8 13 -5 27 -11 12 -13 19 -5 19 7 0 9 5 5 13 -4 6 -4 9
1 5 4 -4 16 -3 26 3 14 7 19 6 19 -3 0 -10 2 -10 8 -1 5 7 31 14 58 16 27 2
55 7 62 11 7 4 16 5 21 2 5 -3 11 3 14 14 3 11 1 23 -4 26 -5 3 -4 14 2 26 9
16 8 19 -2 13 -8 -6 -11 -4 -7 6 3 8 1 25 -3 38 -8 19 -12 21 -24 11 -8 -7
-15 -8 -15 -3 0 5 -7 10 -15 10 -8 0 -12 -4 -10 -7 3 -4 -9 -7 -25 -6 -37 1
-44 18 -20 44 10 11 16 22 13 26 -3 3 0 12 6 20 7 8 10 19 7 25 -3 5 1 12 10
15 8 3 13 10 9 15 -3 5 -1 12 5 16 6 4 8 10 5 15 -3 5 2 18 12 28 18 18 29 87
12 76 -5 -3 -9 -1 -9 4 0 6 -22 16 -50 23 -27 7 -46 17 -43 22 4 6 0 8 -10 4
-9 -3 -19 -2 -23 4 -3 6 -12 8 -20 5 -8 -3 -14 -1 -14 5 0 6 -4 7 -10 4 -5 -3
-10 0 -10 7 0 11 -2 10 -9 0 -6 -11 -10 -10 -15 3 -5 14 -9 15 -21 5 -12 -10
-15 -10 -15 0 0 8 -3 10 -7 6 -4 -3 -12 4 -19 16 -10 19 -10 26 4 42 9 11 11
16 5 12 -8 -4 -13 -1 -13 9 0 9 3 14 8 12 4 -3 8 6 8 19 1 13 -2 22 -6 19 -5
-3 -5 7 -1 22 4 16 7 36 5 46 -1 9 3 17 9 17 8 0 9 3 2 8 -6 4 -12 18 -12 31
-1 13 -8 28 -15 32 -9 6 -10 9 -1 9 7 0 1 11 -13 25 -14 14 -23 29 -20 34 3 5
-1 12 -10 15 -8 3 -12 11 -8 17 4 8 3 9 -4 5 -7 -4 -12 -2 -12 5 0 7 -3 9 -7
6 -3 -4 -22 10 -41 31 -19 20 -31 31 -27 23 6 -10 4 -12 -5 -6 -18 11 -80 13
-80 3 0 -5 -8 -4 -19 1 -10 6 -21 7 -25 4 -10 -10 -87 -10 -114 -1 -16 6 -21
5 -16 -4 4 -7 3 -8 -5 -4 -7 5 -9 16 -5 28 4 13 2 18 -4 14 -5 -3 -13 1 -16
10 -3 8 -11 12 -17 8 -6 -3 -15 0 -20 7 -6 10 -9 11 -9 2z m-1262 -1024 c-7
-5 -9 -9 -5 -9 5 0 5 -5 1 -11 -9 -16 -28 6 -21 25 4 10 13 13 22 9 13 -5 14
-7 3 -14z"/>
<path d="M2020 739 c0 -5 5 -7 10 -4 6 3 10 8 10 11 0 2 -4 4 -10 4 -5 0 -10
-5 -10 -11z"/>
</g>
</svg>
